<svg width="512" height="512" version="1.1" xmlns="http://www.w3.org/2000/svg" desc="Created with imagetracer.js version 1.2.6" ><path fill="rgb(0,0,0)" stroke="rgb(0,0,0)" stroke-width="1" opacity="0" d="M 0 0 L 512 0 L 512 512 L 0 512 L 0 0 Z M 461 32 L 456 34 L 257 233 L 58 35 L 53 33 Q 44 32 41 35 L 33 45 Q 32 53 35 58 L 233 256 L 34 456 L 32 461 Q 31 469 34 473 Q 37 478 45 480 Q 53 481 57 478 L 256 279 L 456 478 L 461 480 Q 469 481 473 478 Q 478 475 480 468 Q 481 460 478 456 L 279 257 L 478 57 L 480 52 Q 481 44 478 40 Q 474 31 461 32 Z " /><path fill="rgb(0,0,0)" stroke="rgb(0,0,0)" stroke-width="1" opacity="0.9176470588235294" d="M 44.5 33 L 47 33.5 L 44.5 34 L 44.5 33 Z " /><path fill="rgb(0,0,0)" stroke="rgb(0,0,0)" stroke-width="1" opacity="0.9176470588235294" d="M 455.5 34 L 453.5 37 L 455.5 34 Z " /><path fill="rgb(0,0,0)" stroke="rgb(0,0,0)" stroke-width="1" opacity="0.9176470588235294" d="M 472.5 34 L 477.5 40 L 472.5 34 Z " /><path fill="rgb(0,0,0)" stroke="rgb(0,0,0)" stroke-width="1" opacity="0.9176470588235294" d="M 40.5 35 L 39.5 37 L 40.5 35 Z " /><path fill="rgb(0,0,0)" stroke="rgb(0,0,0)" stroke-width="1" opacity="0.9176470588235294" d="M 57.5 35 L 256.5 233 L 433 57.5 L 255.5 234 L 57.5 35 Z " /><path fill="rgb(0,0,0)" stroke="rgb(0,0,0)" stroke-width="1" opacity="0.9176470588235294" d="M 36.5 39 L 35.5 41 L 36.5 39 Z " /><path fill="rgb(0,0,0)" stroke="rgb(0,0,0)" stroke-width="1" opacity="0.9176470588235294" d="M 33.5 44 L 34 46.5 L 33 46.5 L 33.5 44 Z " /><path fill="rgb(0,0,0)" stroke="rgb(0,0,0)" stroke-width="1" opacity="0.9176470588235294" d="M 479.5 44 L 480 51.5 L 479 51.5 L 479.5 44 Z " /><path fill="rgb(0,0,0)" stroke="rgb(0,0,0)" stroke-width="1" opacity="0.9176470588235294" d="M 440.5 49 L 439.5 51 L 440.5 49 Z " /><path fill="rgb(0,0,0)" stroke="rgb(0,0,0)" stroke-width="1" opacity="0.9176470588235294" d="M 478.5 53 L 479 54.5 L 279 256.5 L 400.5 379 L 278 255.5 L 477 56.5 L 478.5 53 Z " /><path fill="rgb(0,0,0)" stroke="rgb(0,0,0)" stroke-width="1" opacity="0.9176470588235294" d="M 35.5 57 L 234 256.5 L 34 455.5 L 233 255.5 L 35.5 57 Z " /><path fill="rgb(0,0,0)" stroke="rgb(0,0,0)" stroke-width="1" opacity="0.9176470588235294" d="M 255.5 278 L 456 477.5 L 256.5 279 L 56.5 478 L 255.5 278 Z " /><path fill="rgb(0,0,0)" stroke="rgb(0,0,0)" stroke-width="1" opacity="0.9176470588235294" d="M 475.5 453 L 477.5 456 L 475.5 453 Z " /><path fill="rgb(0,0,0)" stroke="rgb(0,0,0)" stroke-width="1" opacity="0.9176470588235294" d="M 32.5 460 L 33 467.5 L 32 467.5 L 32.5 460 Z " /><path fill="rgb(0,0,0)" stroke="rgb(0,0,0)" stroke-width="1" opacity="0.9176470588235294" d="M 479.5 460 L 480 462.5 L 479 462.5 L 479.5 460 Z " /><path fill="rgb(0,0,0)" stroke="rgb(0,0,0)" stroke-width="1" opacity="0.9176470588235294" d="M 479.5 465 L 480 467.5 L 479 467.5 L 479.5 465 Z " /><path fill="rgb(0,0,0)" stroke="rgb(0,0,0)" stroke-width="1" opacity="0.9176470588235294" d="M 33.5 469 L 40 477.5 L 34 472.5 L 33.5 469 Z " /><path fill="rgb(0,0,0)" stroke="rgb(0,0,0)" stroke-width="1" opacity="0.9176470588235294" d="M 477.5 472 L 472.5 478 L 477.5 472 Z " /><path fill="rgb(0,0,0)" stroke="rgb(0,0,0)" stroke-width="1" opacity="0.9176470588235294" d="M 44.5 479 L 52 479.5 L 44.5 480 L 44.5 479 Z " /><path fill="rgb(0,0,0)" stroke="rgb(0,0,0)" stroke-width="1" opacity="0.9176470588235294" d="M 460.5 479 L 468 479.5 L 460.5 480 L 460.5 479 Z " /><path fill="rgb(0,0,0)" stroke="rgb(0,0,0)" stroke-width="1" opacity="1" d="M 462.5 32 Q 474.1 32.4 478 40.5 L 479 52.5 L 477 56.5 L 278 256.5 L 475 452.5 L 479 458.5 L 480 464.5 L 478 471.5 L 471.5 478 L 459.5 479 L 456.5 478 L 255.5 278 L 55.5 478 L 43.5 479 Q 37.4 477.6 35 472.5 Q 31.5 468.5 33 459.5 L 34 456.5 L 234 255.5 L 35 56.5 L 33 47.5 Q 34.3 40.8 38.5 37 Q 42.5 33 50.5 33 L 56.5 35 L 256.5 234 L 435.5 54 Q 437.8 54.8 437 52.5 L 441 49.5 L 442.5 47 Q 444.8 47.8 444 45.5 L 456.5 34 L 462.5 32 Z " /></svg>